<svg width="940" height="940" xmlns="http://www.w3.org/2000/svg" shape-rendering="crispEdges"><rect width = "940" height = "940" fill = "#000000000"/><rect width="200" height= "20" x="220" y="40" fill="'#00000000"/>
<rect width="20" height= "20" x="420" y="40" fill="#ffffff"/>
<rect width="20" height= "20" x="440" y="40" fill="#ffffff"/>
<rect width="20" height= "20" x="460" y="40" fill="#ad8e0a"/>
<rect width="20" height= "20" x="480" y="40" fill="#bb9e0b"/>
<rect width="20" height= "20" x="500" y="40" fill="#ffffff"/>
<rect width="20" height= "20" x="520" y="40" fill="'#00000000"/>
<rect width="20" height= "20" x="540" y="40" fill="#fffa12"/>
<rect width="140" height= "20" x="560" y="40" fill="'#00000000"/>


<rect width="140" height= "20" x="220" y="60" fill="'#00000000"/>
<rect width="20" height= "20" x="360" y="60" fill="#ffffff"/>
<rect width="20" height= "20" x="380" y="60" fill="#ffeeff"/>
<rect width="20" height= "20" x="400" y="60" fill="#ffffff"/>
<rect width="20" height= "20" x="420" y="60" fill="#ffeeff"/>
<rect width="20" height= "20" x="440" y="60" fill="#947ec7"/>
<rect width="20" height= "20" x="460" y="60" fill="#ffeeff"/>
<rect width="20" height= "20" x="480" y="60" fill="#947ec7"/>
<rect width="20" height= "20" x="500" y="60" fill="#00275c"/>
<rect width="40" height= "20" x="520" y="60" fill="#ffeeff"/>
<rect width="20" height= "20" x="560" y="60" fill="#edc90e"/>
<rect width="120" height= "20" x="580" y="60" fill="'#00000000"/>


<rect width="120" height= "20" x="220" y="80" fill="'#00000000"/>
<rect width="20" height= "20" x="340" y="80" fill="#ffffff"/>
<rect width="20" height= "20" x="360" y="80" fill="#ffffff"/>
<rect width="20" height= "20" x="380" y="80" fill="#00275c"/>
<rect width="20" height= "20" x="400" y="80" fill="#947ec7"/>
<rect width="40" height= "20" x="420" y="80" fill="#e1b6ff"/>
<rect width="20" height= "20" x="460" y="80" fill="#947ec7"/>
<rect width="20" height= "20" x="480" y="80" fill="#e1b6ff"/>
<rect width="20" height= "20" x="500" y="80" fill="#ffeeff"/>
<rect width="20" height= "20" x="520" y="80" fill="#00275c"/>
<rect width="20" height= "20" x="540" y="80" fill="#ffeeff"/>
<rect width="20" height= "20" x="560" y="80" fill="#00275c"/>
<rect width="20" height= "20" x="580" y="80" fill="#ffffff"/>
<rect width="100" height= "20" x="600" y="80" fill="'#00000000"/>


<rect width="80" height= "20" x="220" y="100" fill="'#00000000"/>
<rect width="20" height= "20" x="300" y="100" fill="#ffffff"/>
<rect width="20" height= "20" x="320" y="100" fill="#4d5fa7"/>
<rect width="20" height= "20" x="340" y="100" fill="#ffffff"/>
<rect width="20" height= "20" x="360" y="100" fill="#947ec7"/>
<rect width="20" height= "20" x="380" y="100" fill="#e1b6ff"/>
<rect width="20" height= "20" x="400" y="100" fill="#947ec7"/>
<rect width="40" height= "20" x="420" y="100" fill="#e1b6ff"/>
<rect width="20" height= "20" x="460" y="100" fill="#00275c"/>
<rect width="60" height= "20" x="480" y="100" fill="#e1b6ff"/>
<rect width="20" height= "20" x="540" y="100" fill="#4d5fa7"/>
<rect width="20" height= "20" x="560" y="100" fill="#ffeeff"/>
<rect width="20" height= "20" x="580" y="100" fill="#4d5fa7"/>
<rect width="20" height= "20" x="600" y="100" fill="#ffffff"/>
<rect width="80" height= "20" x="620" y="100" fill="'#00000000"/>


<rect width="80" height= "20" x="220" y="120" fill="'#00000000"/>
<rect width="20" height= "20" x="300" y="120" fill="#947ec7"/>
<rect width="20" height= "20" x="320" y="120" fill="#e1b6ff"/>
<rect width="20" height= "20" x="340" y="120" fill="#947ec7"/>
<rect width="60" height= "20" x="360" y="120" fill="#ffeeff"/>
<rect width="20" height= "20" x="420" y="120" fill="#e1b6ff"/>
<rect width="20" height= "20" x="440" y="120" fill="#947ec7"/>
<rect width="20" height= "20" x="460" y="120" fill="#ffdc0f"/>
<rect width="20" height= "20" x="480" y="120" fill="#4d5fa7"/>
<rect width="40" height= "20" x="500" y="120" fill="#947ec7"/>
<rect width="20" height= "20" x="540" y="120" fill="#4d5fa7"/>
<rect width="40" height= "20" x="560" y="120" fill="#947ec7"/>
<rect width="40" height= "20" x="600" y="120" fill="#e1b6ff"/>
<rect width="60" height= "20" x="640" y="120" fill="'#00000000"/>


<rect width="60" height= "20" x="220" y="140" fill="'#00000000"/>
<rect width="20" height= "20" x="280" y="140" fill="#947ec7"/>
<rect width="20" height= "20" x="300" y="140" fill="#e1b6ff"/>
<rect width="20" height= "20" x="320" y="140" fill="#ffeeff"/>
<rect width="20" height= "20" x="340" y="140" fill="#e1b6ff"/>
<rect width="20" height= "20" x="360" y="140" fill="#ffff15"/>
<rect width="20" height= "20" x="380" y="140" fill="#ffffff"/>
<rect width="40" height= "20" x="400" y="140" fill="#ffeeff"/>
<rect width="20" height= "20" x="440" y="140" fill="#e1b6ff"/>
<rect width="20" height= "20" x="460" y="140" fill="#e1eeff"/>
<rect width="40" height= "20" x="480" y="140" fill="#e1b6ff"/>
<rect width="20" height= "20" x="520" y="140" fill="#ffeeff"/>
<rect width="20" height= "20" x="540" y="140" fill="#00275c"/>
<rect width="20" height= "20" x="560" y="140" fill="#e1b6ff"/>
<rect width="20" height= "20" x="580" y="140" fill="#ffeeff"/>
<rect width="40" height= "20" x="600" y="140" fill="#00275c"/>
<rect width="20" height= "20" x="640" y="140" fill="#bb9e0b"/>
<rect width="40" height= "20" x="660" y="140" fill="'#00000000"/>


<rect width="60" height= "20" x="220" y="160" fill="'#00000000"/>
<rect width="20" height= "20" x="280" y="160" fill="#ad8e0a"/>
<rect width="20" height= "20" x="300" y="160" fill="#ffeeff"/>
<rect width="40" height= "20" x="320" y="160" fill="#e1b6ff"/>
<rect width="20" height= "20" x="360" y="160" fill="#ffeeff"/>
<rect width="20" height= "20" x="380" y="160" fill="#b6b60e"/>
<rect width="20" height= "20" x="400" y="160" fill="#00275c"/>
<rect width="20" height= "20" x="420" y="160" fill="#947ec7"/>
<rect width="20" height= "20" x="440" y="160" fill="#00275c"/>
<rect width="20" height= "20" x="460" y="160" fill="#947ec7"/>
<rect width="20" height= "20" x="480" y="160" fill="#ffeeff"/>
<rect width="20" height= "20" x="500" y="160" fill="#00275c"/>
<rect width="20" height= "20" x="520" y="160" fill="#947ec7"/>
<rect width="20" height= "20" x="540" y="160" fill="#ffeeff"/>
<rect width="60" height= "20" x="560" y="160" fill="#00275c"/>
<rect width="20" height= "20" x="620" y="160" fill="#947ec7"/>
<rect width="20" height= "20" x="640" y="160" fill="#ffffff"/>
<rect width="40" height= "20" x="660" y="160" fill="'#00000000"/>


<rect width="60" height= "20" x="220" y="180" fill="'#00000000"/>
<rect width="20" height= "20" x="280" y="180" fill="#ffffff"/>
<rect width="20" height= "20" x="300" y="180" fill="#4d5fa7"/>
<rect width="20" height= "20" x="320" y="180" fill="#e1b6ff"/>
<rect width="20" height= "20" x="340" y="180" fill="#ffeeff"/>
<rect width="20" height= "20" x="360" y="180" fill="#e1b6ff"/>
<rect width="40" height= "20" x="380" y="180" fill="#ffeeff"/>
<rect width="60" height= "20" x="420" y="180" fill="#e1b6ff"/>
<rect width="20" height= "20" x="480" y="180" fill="#00275c"/>
<rect width="20" height= "20" x="500" y="180" fill="#d6c510"/>
<rect width="40" height= "20" x="520" y="180" fill="#947ec7"/>
<rect width="20" height= "20" x="560" y="180" fill="#00275c"/>
<rect width="20" height= "20" x="580" y="180" fill="#e1b6ff"/>
<rect width="20" height= "20" x="600" y="180" fill="#947ec7"/>
<rect width="20" height= "20" x="620" y="180" fill="#e1b6ff"/>
<rect width="20" height= "20" x="640" y="180" fill="#4d5fa7"/>
<rect width="20" height= "20" x="660" y="180" fill="#e1eeff"/>
<rect width="20" height= "20" x="680" y="180" fill="'#00000000"/>


<rect width="40" height= "20" x="220" y="200" fill="'#00000000"/>
<rect width="20" height= "20" x="260" y="200" fill="#ffeeff"/>
<rect width="20" height= "20" x="280" y="200" fill="#ffffff"/>
<rect width="20" height= "20" x="300" y="200" fill="#e1b6ff"/>
<rect width="40" height= "20" x="320" y="200" fill="#947ec7"/>
<rect width="20" height= "20" x="360" y="200" fill="#4d5fa7"/>
<rect width="60" height= "20" x="380" y="200" fill="#e1b6ff"/>
<rect width="40" height= "20" x="440" y="200" fill="#00275c"/>
<rect width="20" height= "20" x="480" y="200" fill="#e1b6ff"/>
<rect width="40" height= "20" x="500" y="200" fill="#00275c"/>
<rect width="20" height= "20" x="540" y="200" fill="#e1b6ff"/>
<rect width="20" height= "20" x="560" y="200" fill="#ffeeff"/>
<rect width="20" height= "20" x="580" y="200" fill="#947ec7"/>
<rect width="20" height= "20" x="600" y="200" fill="#00275c"/>
<rect width="40" height= "20" x="620" y="200" fill="#947ec7"/>
<rect width="20" height= "20" x="660" y="200" fill="#e1b6ff"/>
<rect width="20" height= "20" x="680" y="200" fill="'#00000000"/>


<rect width="40" height= "20" x="220" y="220" fill="'#00000000"/>
<rect width="20" height= "20" x="260" y="220" fill="#ffffff"/>
<rect width="20" height= "20" x="280" y="220" fill="#fffa12"/>
<rect width="40" height= "20" x="300" y="220" fill="#e1b6ff"/>
<rect width="20" height= "20" x="340" y="220" fill="#4d5fa7"/>
<rect width="20" height= "20" x="360" y="220" fill="#e1b6ff"/>
<rect width="20" height= "20" x="380" y="220" fill="#00275c"/>
<rect width="20" height= "20" x="400" y="220" fill="#947ec7"/>
<rect width="20" height= "20" x="420" y="220" fill="#ffffff"/>
<rect width="20" height= "20" x="440" y="220" fill="#00275c"/>
<rect width="20" height= "20" x="460" y="220" fill="#ffeeff"/>
<rect width="20" height= "20" x="480" y="220" fill="#947ec7"/>
<rect width="60" height= "20" x="500" y="220" fill="#e1b6ff"/>
<rect width="20" height= "20" x="560" y="220" fill="#5382fd"/>
<rect width="20" height= "20" x="580" y="220" fill="#a0a0ff"/>
<rect width="20" height= "20" x="600" y="220" fill="#947ec7"/>
<rect width="40" height= "20" x="620" y="220" fill="#00275c"/>
<rect width="20" height= "20" x="660" y="220" fill="#ffeeff"/>
<rect width="20" height= "20" x="680" y="220" fill="'#00000000"/>


<rect width="20" height= "20" x="220" y="240" fill="'#00000000"/>
<rect width="20" height= "20" x="240" y="240" fill="#a69a0b"/>
<rect width="40" height= "20" x="260" y="240" fill="#ffeeff"/>
<rect width="40" height= "20" x="300" y="240" fill="#947ec7"/>
<rect width="20" height= "20" x="340" y="240" fill="#4d5fa7"/>
<rect width="20" height= "20" x="360" y="240" fill="#947ec7"/>
<rect width="20" height= "20" x="380" y="240" fill="#e1b6ff"/>
<rect width="40" height= "20" x="400" y="240" fill="#947ec7"/>
<rect width="40" height= "20" x="440" y="240" fill="#ffeeff"/>
<rect width="20" height= "20" x="480" y="240" fill="#00275c"/>
<rect width="20" height= "20" x="500" y="240" fill="#e0bb0d"/>
<rect width="40" height= "20" x="520" y="240" fill="#00275c"/>
<rect width="20" height= "20" x="560" y="240" fill="#ffeeff"/>
<rect width="40" height= "20" x="580" y="240" fill="#00275c"/>
<rect width="20" height= "20" x="620" y="240" fill="#4d5fa7"/>
<rect width="20" height= "20" x="640" y="240" fill="#ffffff"/>
<rect width="20" height= "20" x="660" y="240" fill="#947ec7"/>
<rect width="20" height= "20" x="680" y="240" fill="#ffeeff"/>


<rect width="20" height= "20" x="220" y="260" fill="'#00000000"/>
<rect width="20" height= "20" x="240" y="260" fill="#ffffff"/>
<rect width="20" height= "20" x="260" y="260" fill="#e1b6ff"/>
<rect width="20" height= "20" x="280" y="260" fill="#ffff12"/>
<rect width="20" height= "20" x="300" y="260" fill="#e1b6ff"/>
<rect width="20" height= "20" x="320" y="260" fill="#47235c"/>
<rect width="20" height= "20" x="340" y="260" fill="#e1b6ff"/>
<rect width="20" height= "20" x="360" y="260" fill="#ffffff"/>
<rect width="20" height= "20" x="380" y="260" fill="#00275c"/>
<rect width="100" height= "20" x="400" y="260" fill="#e1b6ff"/>
<rect width="60" height= "20" x="500" y="260" fill="#947ec7"/>
<rect width="40" height= "20" x="560" y="260" fill="#00275c"/>
<rect width="20" height= "20" x="600" y="260" fill="#e1b6ff"/>
<rect width="40" height= "20" x="620" y="260" fill="#00275c"/>
<rect width="40" height= "20" x="660" y="260" fill="#ffffff"/>


<rect width="20" height= "20" x="220" y="280" fill="'#00000000"/>
<rect width="20" height= "20" x="240" y="280" fill="#ffffff"/>
<rect width="20" height= "20" x="260" y="280" fill="#947ec7"/>
<rect width="20" height= "20" x="280" y="280" fill="#e1b6ff"/>
<rect width="20" height= "20" x="300" y="280" fill="#00275c"/>
<rect width="20" height= "20" x="320" y="280" fill="#ffeeff"/>
<rect width="20" height= "20" x="340" y="280" fill="#e1b6ff"/>
<rect width="20" height= "20" x="360" y="280" fill="#00275c"/>
<rect width="20" height= "20" x="380" y="280" fill="#ffffff"/>
<rect width="20" height= "20" x="400" y="280" fill="#e1b6ff"/>
<rect width="20" height= "20" x="420" y="280" fill="#ffffff"/>
<rect width="20" height= "20" x="440" y="280" fill="#e1b6ff"/>
<rect width="20" height= "20" x="460" y="280" fill="#ffeeff"/>
<rect width="20" height= "20" x="480" y="280" fill="#00275c"/>
<rect width="40" height= "20" x="500" y="280" fill="#947ec7"/>
<rect width="100" height= "20" x="540" y="280" fill="#00275c"/>
<rect width="20" height= "20" x="640" y="280" fill="#ffffff"/>
<rect width="20" height= "20" x="660" y="280" fill="#947ec7"/>
<rect width="20" height= "20" x="680" y="280" fill="#e1b6ff"/>


<rect width="20" height= "20" x="220" y="300" fill="'#00000000"/>
<rect width="20" height= "20" x="240" y="300" fill="#a0a0ff"/>
<rect width="20" height= "20" x="260" y="300" fill="#947ec7"/>
<rect width="20" height= "20" x="280" y="300" fill="#ffff13"/>
<rect width="20" height= "20" x="300" y="300" fill="#947ec7"/>
<rect width="20" height= "20" x="320" y="300" fill="#ffffff"/>
<rect width="20" height= "20" x="340" y="300" fill="#ffeeff"/>
<rect width="60" height= "20" x="360" y="300" fill="#947ec7"/>
<rect width="60" height= "20" x="420" y="300" fill="#e1b6ff"/>
<rect width="20" height= "20" x="480" y="300" fill="#947ec7"/>
<rect width="20" height= "20" x="500" y="300" fill="#4d5fa7"/>
<rect width="40" height= "20" x="520" y="300" fill="#e1b6ff"/>
<rect width="40" height= "20" x="560" y="300" fill="#00275c"/>
<rect width="20" height= "20" x="600" y="300" fill="#947ec7"/>
<rect width="20" height= "20" x="620" y="300" fill="#00275c"/>
<rect width="20" height= "20" x="640" y="300" fill="#947ec7"/>
<rect width="20" height= "20" x="660" y="300" fill="#ffeeff"/>
<rect width="20" height= "20" x="680" y="300" fill="#00275c"/>


<rect width="20" height= "20" x="220" y="320" fill="'#00000000"/>
<rect width="20" height= "20" x="240" y="320" fill="#ffffff"/>
<rect width="20" height= "20" x="260" y="320" fill="#ffffff"/>
<rect width="20" height= "20" x="280" y="320" fill="#ad8e0a"/>
<rect width="20" height= "20" x="300" y="320" fill="#ffffff"/>
<rect width="20" height= "20" x="320" y="320" fill="#e1b6ff"/>
<rect width="20" height= "20" x="340" y="320" fill="#947ec7"/>
<rect width="20" height= "20" x="360" y="320" fill="#00275c"/>
<rect width="20" height= "20" x="380" y="320" fill="#e1b6ff"/>
<rect width="20" height= "20" x="400" y="320" fill="#4d5fa7"/>
<rect width="20" height= "20" x="420" y="320" fill="#ffffff"/>
<rect width="20" height= "20" x="440" y="320" fill="#00275c"/>
<rect width="20" height= "20" x="460" y="320" fill="#ffffff"/>
<rect width="20" height= "20" x="480" y="320" fill="#00275c"/>
<rect width="20" height= "20" x="500" y="320" fill="#ffff14"/>
<rect width="60" height= "20" x="520" y="320" fill="#947ec7"/>
<rect width="40" height= "20" x="580" y="320" fill="#00275c"/>
<rect width="40" height= "20" x="620" y="320" fill="#947ec7"/>
<rect width="20" height= "20" x="660" y="320" fill="#ad8e0a"/>
<rect width="20" height= "20" x="680" y="320" fill="#ffffff"/>


<rect width="20" height= "20" x="220" y="340" fill="#ffffff"/>
<rect width="40" height= "20" x="240" y="340" fill="#ffeeff"/>
<rect width="40" height= "20" x="280" y="340" fill="#e1b6ff"/>
<rect width="20" height= "20" x="320" y="340" fill="#ffeeff"/>
<rect width="20" height= "20" x="340" y="340" fill="#947ec7"/>
<rect width="20" height= "20" x="360" y="340" fill="#e1b6ff"/>
<rect width="20" height= "20" x="380" y="340" fill="#00275c"/>
<rect width="20" height= "20" x="400" y="340" fill="#e1b6ff"/>
<rect width="20" height= "20" x="420" y="340" fill="#ffeeff"/>
<rect width="20" height= "20" x="440" y="340" fill="#00275c"/>
<rect width="20" height= "20" x="460" y="340" fill="#947ec7"/>
<rect width="60" height= "20" x="480" y="340" fill="#00275c"/>
<rect width="20" height= "20" x="540" y="340" fill="#4d5fa7"/>
<rect width="20" height= "20" x="560" y="340" fill="#00275c"/>
<rect width="20" height= "20" x="580" y="340" fill="#947ec7"/>
<rect width="20" height= "20" x="600" y="340" fill="#00275c"/>
<rect width="40" height= "20" x="620" y="340" fill="#947ec7"/>
<rect width="20" height= "20" x="660" y="340" fill="#4d5fa7"/>
<rect width="20" height= "20" x="680" y="340" fill="#00275c"/>


<rect width="20" height= "20" x="220" y="360" fill="'#00000000"/>
<rect width="20" height= "20" x="240" y="360" fill="#ffffff"/>
<rect width="20" height= "20" x="260" y="360" fill="#00275c"/>
<rect width="20" height= "20" x="280" y="360" fill="#947ec7"/>
<rect width="20" height= "20" x="300" y="360" fill="#ffffff"/>
<rect width="60" height= "20" x="320" y="360" fill="#e1b6ff"/>
<rect width="40" height= "20" x="380" y="360" fill="#947ec7"/>
<rect width="20" height= "20" x="420" y="360" fill="#e1b6ff"/>
<rect width="20" height= "20" x="440" y="360" fill="#4d5fa7"/>
<rect width="20" height= "20" x="460" y="360" fill="#e1b6ff"/>
<rect width="20" height= "20" x="480" y="360" fill="#00275c"/>
<rect width="20" height= "20" x="500" y="360" fill="#a0a0ff"/>
<rect width="20" height= "20" x="520" y="360" fill="#947ec7"/>
<rect width="20" height= "20" x="540" y="360" fill="#00275c"/>
<rect width="20" height= "20" x="560" y="360" fill="#bb9e0b"/>
<rect width="80" height= "20" x="580" y="360" fill="#00275c"/>
<rect width="20" height= "20" x="660" y="360" fill="#ffffff"/>
<rect width="20" height= "20" x="680" y="360" fill="#ffffff"/>


<rect width="20" height= "20" x="220" y="380" fill="#ffffff"/>
<rect width="20" height= "20" x="240" y="380" fill="#ffeeff"/>
<rect width="20" height= "20" x="260" y="380" fill="#ffff14"/>
<rect width="20" height= "20" x="280" y="380" fill="#e1b6ff"/>
<rect width="20" height= "20" x="300" y="380" fill="#4d5fa7"/>
<rect width="20" height= "20" x="320" y="380" fill="#ffffff"/>
<rect width="20" height= "20" x="340" y="380" fill="#ffeeff"/>
<rect width="20" height= "20" x="360" y="380" fill="#947ec7"/>
<rect width="20" height= "20" x="380" y="380" fill="#ffffff"/>
<rect width="20" height= "20" x="400" y="380" fill="#00275c"/>
<rect width="20" height= "20" x="420" y="380" fill="#ffffff"/>
<rect width="20" height= "20" x="440" y="380" fill="#ffffff"/>
<rect width="20" height= "20" x="460" y="380" fill="#947ec7"/>
<rect width="60" height= "20" x="480" y="380" fill="#00275c"/>
<rect width="20" height= "20" x="540" y="380" fill="#e1b6ff"/>
<rect width="40" height= "20" x="560" y="380" fill="#947ec7"/>
<rect width="20" height= "20" x="600" y="380" fill="#00275c"/>
<rect width="20" height= "20" x="620" y="380" fill="#ad8e0a"/>
<rect width="40" height= "20" x="640" y="380" fill="#00275c"/>
<rect width="20" height= "20" x="680" y="380" fill="#ffffff"/>


<rect width="20" height= "20" x="220" y="400" fill="'#00000000"/>
<rect width="20" height= "20" x="240" y="400" fill="#a69a0b"/>
<rect width="20" height= "20" x="260" y="400" fill="#e1b6ff"/>
<rect width="20" height= "20" x="280" y="400" fill="#ffffff"/>
<rect width="20" height= "20" x="300" y="400" fill="#e1b6ff"/>
<rect width="20" height= "20" x="320" y="400" fill="#47235c"/>
<rect width="20" height= "20" x="340" y="400" fill="#ffeeff"/>
<rect width="20" height= "20" x="360" y="400" fill="#947ec7"/>
<rect width="40" height= "20" x="380" y="400" fill="#ffffff"/>
<rect width="20" height= "20" x="420" y="400" fill="#e1b6ff"/>
<rect width="20" height= "20" x="440" y="400" fill="#00275c"/>
<rect width="20" height= "20" x="460" y="400" fill="#e1b6ff"/>
<rect width="20" height= "20" x="480" y="400" fill="#947ec7"/>
<rect width="20" height= "20" x="500" y="400" fill="#e1b6ff"/>
<rect width="20" height= "20" x="520" y="400" fill="#00275c"/>
<rect width="20" height= "20" x="540" y="400" fill="#947ec7"/>
<rect width="20" height= "20" x="560" y="400" fill="#ffffff"/>
<rect width="20" height= "20" x="580" y="400" fill="#00275c"/>
<rect width="20" height= "20" x="600" y="400" fill="#47235c"/>
<rect width="20" height= "20" x="620" y="400" fill="#00275c"/>
<rect width="40" height= "20" x="640" y="400" fill="#4d5fa7"/>
<rect width="20" height= "20" x="680" y="400" fill="'#00000000"/>


<rect width="20" height= "20" x="220" y="420" fill="#ffffff"/>
<rect width="20" height= "20" x="240" y="420" fill="#ffeeff"/>
<rect width="20" height= "20" x="260" y="420" fill="#b6b60e"/>
<rect width="20" height= "20" x="280" y="420" fill="#947ec7"/>
<rect width="20" height= "20" x="300" y="420" fill="#ffff14"/>
<rect width="20" height= "20" x="320" y="420" fill="#e1b6ff"/>
<rect width="40" height= "20" x="340" y="420" fill="#00275c"/>
<rect width="20" height= "20" x="380" y="420" fill="#e1b6ff"/>
<rect width="20" height= "20" x="400" y="420" fill="#947ec7"/>
<rect width="20" height= "20" x="420" y="420" fill="#4d5fa7"/>
<rect width="20" height= "20" x="440" y="420" fill="#ffeeff"/>
<rect width="20" height= "20" x="460" y="420" fill="#947ec7"/>
<rect width="20" height= "20" x="480" y="420" fill="#00275c"/>
<rect width="20" height= "20" x="500" y="420" fill="#4d5fa7"/>
<rect width="20" height= "20" x="520" y="420" fill="#00275c"/>
<rect width="20" height= "20" x="540" y="420" fill="#e1b6ff"/>
<rect width="20" height= "20" x="560" y="420" fill="#00275c"/>
<rect width="20" height= "20" x="580" y="420" fill="#4d5fa7"/>
<rect width="20" height= "20" x="600" y="420" fill="#00275c"/>
<rect width="20" height= "20" x="620" y="420" fill="#ffffff"/>
<rect width="20" height= "20" x="640" y="420" fill="#00275c"/>
<rect width="20" height= "20" x="660" y="420" fill="#ffeeff"/>
<rect width="20" height= "20" x="680" y="420" fill="'#00000000"/>


<rect width="20" height= "20" x="220" y="440" fill="#e0bb0d"/>
<rect width="20" height= "20" x="240" y="440" fill="#ffffff"/>
<rect width="20" height= "20" x="260" y="440" fill="#947ec7"/>
<rect width="20" height= "20" x="280" y="440" fill="#ffffff"/>
<rect width="20" height= "20" x="300" y="440" fill="#947ec7"/>
<rect width="20" height= "20" x="320" y="440" fill="#e0bb0d"/>
<rect width="20" height= "20" x="340" y="440" fill="#4d5fa7"/>
<rect width="40" height= "20" x="360" y="440" fill="#00275c"/>
<rect width="20" height= "20" x="400" y="440" fill="#e1b6ff"/>
<rect width="20" height= "20" x="420" y="440" fill="#ffeb10"/>
<rect width="20" height= "20" x="440" y="440" fill="#ffff14"/>
<rect width="20" height= "20" x="460" y="440" fill="#fffa12"/>
<rect width="20" height= "20" x="480" y="440" fill="#ffffff"/>
<rect width="20" height= "20" x="500" y="440" fill="#947ec7"/>
<rect width="60" height= "20" x="520" y="440" fill="#00275c"/>
<rect width="20" height= "20" x="580" y="440" fill="#4d5fa7"/>
<rect width="20" height= "20" x="600" y="440" fill="#00275c"/>
<rect width="20" height= "20" x="620" y="440" fill="#947ec7"/>
<rect width="20" height= "20" x="640" y="440" fill="#bb9e0b"/>
<rect width="20" height= "20" x="660" y="440" fill="#ad8e0a"/>
<rect width="20" height= "20" x="680" y="440" fill="'#00000000"/>


<rect width="20" height= "20" x="220" y="460" fill="'#00000000"/>
<rect width="20" height= "20" x="240" y="460" fill="#ffeeff"/>
<rect width="20" height= "20" x="260" y="460" fill="#e1b6ff"/>
<rect width="20" height= "20" x="280" y="460" fill="#ffeeff"/>
<rect width="40" height= "20" x="300" y="460" fill="#947ec7"/>
<rect width="20" height= "20" x="340" y="460" fill="#ffeeff"/>
<rect width="20" height= "20" x="360" y="460" fill="#00275c"/>
<rect width="20" height= "20" x="380" y="460" fill="#947ec7"/>
<rect width="20" height= "20" x="400" y="460" fill="#4d5fa7"/>
<rect width="20" height= "20" x="420" y="460" fill="#00275c"/>
<rect width="20" height= "20" x="440" y="460" fill="#ffffff"/>
<rect width="20" height= "20" x="460" y="460" fill="#00275c"/>
<rect width="20" height= "20" x="480" y="460" fill="#947ec7"/>
<rect width="20" height= "20" x="500" y="460" fill="#00275c"/>
<rect width="20" height= "20" x="520" y="460" fill="#947ec7"/>
<rect width="20" height= "20" x="540" y="460" fill="#e1b6ff"/>
<rect width="20" height= "20" x="560" y="460" fill="#947ec7"/>
<rect width="20" height= "20" x="580" y="460" fill="#4d5fa7"/>
<rect width="20" height= "20" x="600" y="460" fill="#00275c"/>
<rect width="20" height= "20" x="620" y="460" fill="#e1b6ff"/>
<rect width="20" height= "20" x="640" y="460" fill="#4d5fa7"/>
<rect width="20" height= "20" x="660" y="460" fill="#ffffff"/>
<rect width="20" height= "20" x="680" y="460" fill="'#00000000"/>


<rect width="40" height= "20" x="220" y="480" fill="'#00000000"/>
<rect width="60" height= "20" x="260" y="480" fill="#947ec7"/>
<rect width="20" height= "20" x="320" y="480" fill="#e1b6ff"/>
<rect width="20" height= "20" x="340" y="480" fill="#ffcccd"/>
<rect width="20" height= "20" x="360" y="480" fill="#e1b6ff"/>
<rect width="20" height= "20" x="380" y="480" fill="#947ec7"/>
<rect width="20" height= "20" x="400" y="480" fill="#4d5fa7"/>
<rect width="20" height= "20" x="420" y="480" fill="#947ec7"/>
<rect width="20" height= "20" x="440" y="480" fill="#e1b6ff"/>
<rect width="20" height= "20" x="460" y="480" fill="#ffffff"/>
<rect width="20" height= "20" x="480" y="480" fill="#ffffff"/>
<rect width="20" height= "20" x="500" y="480" fill="#947ec7"/>
<rect width="20" height= "20" x="520" y="480" fill="#ffffff"/>
<rect width="20" height= "20" x="540" y="480" fill="#947ec7"/>
<rect width="40" height= "20" x="560" y="480" fill="#00275c"/>
<rect width="20" height= "20" x="600" y="480" fill="#001120"/>
<rect width="20" height= "20" x="620" y="480" fill="#00275c"/>
<rect width="20" height= "20" x="640" y="480" fill="#4d5fa7"/>
<rect width="20" height= "20" x="660" y="480" fill="#bb9e0b"/>
<rect width="20" height= "20" x="680" y="480" fill="'#00000000"/>


<rect width="40" height= "20" x="220" y="500" fill="'#00000000"/>
<rect width="20" height= "20" x="260" y="500" fill="#bda90c"/>
<rect width="20" height= "20" x="280" y="500" fill="#4d5fa7"/>
<rect width="20" height= "20" x="300" y="500" fill="#ffffff"/>
<rect width="20" height= "20" x="320" y="500" fill="#ffcccd"/>
<rect width="20" height= "20" x="340" y="500" fill="#ffdc0f"/>
<rect width="20" height= "20" x="360" y="500" fill="#947ec7"/>
<rect width="20" height= "20" x="380" y="500" fill="#47235c"/>
<rect width="20" height= "20" x="400" y="500" fill="#bb9e0b"/>
<rect width="20" height= "20" x="420" y="500" fill="#947ec7"/>
<rect width="20" height= "20" x="440" y="500" fill="#ffffff"/>
<rect width="20" height= "20" x="460" y="500" fill="#00275c"/>
<rect width="20" height= "20" x="480" y="500" fill="#47235c"/>
<rect width="20" height= "20" x="500" y="500" fill="#001120"/>
<rect width="20" height= "20" x="520" y="500" fill="#00275c"/>
<rect width="20" height= "20" x="540" y="500" fill="#4d5fa7"/>
<rect width="20" height= "20" x="560" y="500" fill="#947ec7"/>
<rect width="20" height= "20" x="580" y="500" fill="#00275c"/>
<rect width="20" height= "20" x="600" y="500" fill="#947ec7"/>
<rect width="20" height= "20" x="620" y="500" fill="#00275c"/>
<rect width="20" height= "20" x="640" y="500" fill="#947ec7"/>
<rect width="40" height= "20" x="660" y="500" fill="'#00000000"/>


<rect width="60" height= "20" x="220" y="520" fill="'#00000000"/>
<rect width="20" height= "20" x="280" y="520" fill="#947ec7"/>
<rect width="20" height= "20" x="300" y="520" fill="#00275c"/>
<rect width="20" height= "20" x="320" y="520" fill="#f4c20d"/>
<rect width="20" height= "20" x="340" y="520" fill="#947ec7"/>
<rect width="20" height= "20" x="360" y="520" fill="#e1b6ff"/>
<rect width="20" height= "20" x="380" y="520" fill="#00275c"/>
<rect width="20" height= "20" x="400" y="520" fill="#ffffff"/>
<rect width="20" height= "20" x="420" y="520" fill="#00275c"/>
<rect width="20" height= "20" x="440" y="520" fill="#4d5fa7"/>
<rect width="20" height= "20" x="460" y="520" fill="#947ec7"/>
<rect width="20" height= "20" x="480" y="520" fill="#e1b6ff"/>
<rect width="40" height= "20" x="500" y="520" fill="#947ec7"/>
<rect width="80" height= "20" x="540" y="520" fill="#00275c"/>
<rect width="20" height= "20" x="620" y="520" fill="#947ec7"/>
<rect width="20" height= "20" x="640" y="520" fill="#ad8e0a"/>
<rect width="40" height= "20" x="660" y="520" fill="'#00000000"/>


<rect width="80" height= "20" x="220" y="540" fill="'#00000000"/>
<rect width="20" height= "20" x="300" y="540" fill="#947ec7"/>
<rect width="20" height= "20" x="320" y="540" fill="#4d5fa7"/>
<rect width="20" height= "20" x="340" y="540" fill="#ffffff"/>
<rect width="20" height= "20" x="360" y="540" fill="#ffeeff"/>
<rect width="20" height= "20" x="380" y="540" fill="#47235c"/>
<rect width="20" height= "20" x="400" y="540" fill="#00275c"/>
<rect width="20" height= "20" x="420" y="540" fill="#947ec7"/>
<rect width="20" height= "20" x="440" y="540" fill="#47235c"/>
<rect width="40" height= "20" x="460" y="540" fill="#00275c"/>
<rect width="20" height= "20" x="500" y="540" fill="#001120"/>
<rect width="40" height= "20" x="520" y="540" fill="#00275c"/>
<rect width="20" height= "20" x="560" y="540" fill="#947ec7"/>
<rect width="20" height= "20" x="580" y="540" fill="#00275c"/>
<rect width="20" height= "20" x="600" y="540" fill="#4d5fa7"/>
<rect width="20" height= "20" x="620" y="540" fill="#ffffff"/>
<rect width="20" height= "20" x="640" y="540" fill="#ffeeff"/>
<rect width="40" height= "20" x="660" y="540" fill="'#00000000"/>


<rect width="80" height= "20" x="220" y="560" fill="'#00000000"/>
<rect width="20" height= "20" x="300" y="560" fill="#947ec7"/>
<rect width="20" height= "20" x="320" y="560" fill="#00275c"/>
<rect width="20" height= "20" x="340" y="560" fill="#53526c"/>
<rect width="20" height= "20" x="360" y="560" fill="#ffeeff"/>
<rect width="20" height= "20" x="380" y="560" fill="#947ec7"/>
<rect width="20" height= "20" x="400" y="560" fill="#e1b6ff"/>
<rect width="20" height= "20" x="420" y="560" fill="#00275c"/>
<rect width="40" height= "20" x="440" y="560" fill="#947ec7"/>
<rect width="20" height= "20" x="480" y="560" fill="#ad8e0a"/>
<rect width="80" height= "20" x="500" y="560" fill="#947ec7"/>
<rect width="40" height= "20" x="580" y="560" fill="#00275c"/>
<rect width="20" height= "20" x="620" y="560" fill="#ffffff"/>
<rect width="20" height= "20" x="640" y="560" fill="#bda90c"/>
<rect width="40" height= "20" x="660" y="560" fill="'#00000000"/>


<rect width="80" height= "20" x="220" y="580" fill="'#00000000"/>
<rect width="20" height= "20" x="300" y="580" fill="#f88b87"/>
<rect width="20" height= "20" x="320" y="580" fill="#ffeeff"/>
<rect width="20" height= "20" x="340" y="580" fill="#00275c"/>
<rect width="20" height= "20" x="360" y="580" fill="#ffffff"/>
<rect width="20" height= "20" x="380" y="580" fill="#4d5fa7"/>
<rect width="20" height= "20" x="400" y="580" fill="#00275c"/>
<rect width="20" height= "20" x="420" y="580" fill="#47235c"/>
<rect width="20" height= "20" x="440" y="580" fill="#947ec7"/>
<rect width="20" height= "20" x="460" y="580" fill="#00275c"/>
<rect width="20" height= "20" x="480" y="580" fill="#ffffff"/>
<rect width="80" height= "20" x="500" y="580" fill="#00275c"/>
<rect width="20" height= "20" x="580" y="580" fill="#001120"/>
<rect width="20" height= "20" x="600" y="580" fill="#ffffff"/>
<rect width="20" height= "20" x="620" y="580" fill="#00275c"/>
<rect width="60" height= "20" x="640" y="580" fill="'#00000000"/>


<rect width="80" height= "20" x="220" y="600" fill="'#00000000"/>
<rect width="20" height= "20" x="300" y="600" fill="#ffcccd"/>
<rect width="20" height= "20" x="320" y="600" fill="#47235c"/>
<rect width="20" height= "20" x="340" y="600" fill="#00275c"/>
<rect width="20" height= "20" x="360" y="600" fill="#ffffff"/>
<rect width="20" height= "20" x="380" y="600" fill="#47235c"/>
<rect width="40" height= "20" x="400" y="600" fill="#00275c"/>
<rect width="20" height= "20" x="440" y="600" fill="#47235c"/>
<rect width="40" height= "20" x="460" y="600" fill="#00275c"/>
<rect width="40" height= "20" x="500" y="600" fill="#4d5fa7"/>
<rect width="40" height= "20" x="540" y="600" fill="#00275c"/>
<rect width="20" height= "20" x="580" y="600" fill="#47235c"/>
<rect width="40" height= "20" x="600" y="600" fill="#ad8e0a"/>
<rect width="60" height= "20" x="640" y="600" fill="'#00000000"/>


<rect width="100" height= "20" x="220" y="620" fill="'#00000000"/>
<rect width="20" height= "20" x="320" y="620" fill="#ffcccd"/>
<rect width="20" height= "20" x="340" y="620" fill="#ffffff"/>
<rect width="20" height= "20" x="360" y="620" fill="#f88b87"/>
<rect width="20" height= "20" x="380" y="620" fill="#ffff11"/>
<rect width="20" height= "20" x="400" y="620" fill="#947ec7"/>
<rect width="20" height= "20" x="420" y="620" fill="#ad8e0a"/>
<rect width="20" height= "20" x="440" y="620" fill="#00275c"/>
<rect width="20" height= "20" x="460" y="620" fill="#47235c"/>
<rect width="20" height= "20" x="480" y="620" fill="#ffcccd"/>
<rect width="20" height= "20" x="500" y="620" fill="#00275c"/>
<rect width="40" height= "20" x="520" y="620" fill="#47235c"/>
<rect width="20" height= "20" x="560" y="620" fill="#001120"/>
<rect width="20" height= "20" x="580" y="620" fill="#f88b87"/>
<rect width="20" height= "20" x="600" y="620" fill="#947ec7"/>
<rect width="80" height= "20" x="620" y="620" fill="'#00000000"/>


<rect width="120" height= "20" x="220" y="640" fill="'#00000000"/>
<rect width="20" height= "20" x="340" y="640" fill="#a65b66"/>
<rect width="20" height= "20" x="360" y="640" fill="#e1b6ff"/>
<rect width="20" height= "20" x="380" y="640" fill="#001120"/>
<rect width="20" height= "20" x="400" y="640" fill="#ffcccd"/>
<rect width="20" height= "20" x="420" y="640" fill="#00275c"/>
<rect width="20" height= "20" x="440" y="640" fill="#001120"/>
<rect width="20" height= "20" x="460" y="640" fill="#ffffff"/>
<rect width="40" height= "20" x="480" y="640" fill="#00275c"/>
<rect width="20" height= "20" x="520" y="640" fill="#001120"/>
<rect width="60" height= "20" x="540" y="640" fill="#47235c"/>
<rect width="20" height= "20" x="600" y="640" fill="#ffcccd"/>
<rect width="80" height= "20" x="620" y="640" fill="'#00000000"/>


<rect width="140" height= "20" x="220" y="660" fill="'#00000000"/>
<rect width="20" height= "20" x="360" y="660" fill="#47235c"/>
<rect width="20" height= "20" x="380" y="660" fill="#53526c"/>
<rect width="20" height= "20" x="400" y="660" fill="#947ec7"/>
<rect width="20" height= "20" x="420" y="660" fill="#00275c"/>
<rect width="20" height= "20" x="440" y="660" fill="#47235c"/>
<rect width="20" height= "20" x="460" y="660" fill="#53526c"/>
<rect width="20" height= "20" x="480" y="660" fill="#47235c"/>
<rect width="20" height= "20" x="500" y="660" fill="#001120"/>
<rect width="20" height= "20" x="520" y="660" fill="#47235c"/>
<rect width="20" height= "20" x="540" y="660" fill="#4d5fa7"/>
<rect width="20" height= "20" x="560" y="660" fill="#001120"/>
<rect width="20" height= "20" x="580" y="660" fill="#ffc39c"/>
<rect width="20" height= "20" x="600" y="660" fill="#fffbb7"/>
<rect width="80" height= "20" x="620" y="660" fill="'#00000000"/>


<rect width="160" height= "20" x="220" y="680" fill="'#00000000"/>
<rect width="20" height= "20" x="380" y="680" fill="#f88b87"/>
<rect width="20" height= "20" x="400" y="680" fill="#47235c"/>
<rect width="20" height= "20" x="420" y="680" fill="#4d5fa7"/>
<rect width="20" height= "20" x="440" y="680" fill="#e1b6ff"/>
<rect width="20" height= "20" x="460" y="680" fill="#47235c"/>
<rect width="20" height= "20" x="480" y="680" fill="#53526c"/>
<rect width="20" height= "20" x="500" y="680" fill="#001120"/>
<rect width="20" height= "20" x="520" y="680" fill="#47235c"/>
<rect width="20" height= "20" x="540" y="680" fill="#ffffff"/>
<rect width="20" height= "20" x="560" y="680" fill="#f89c30"/>
<rect width="20" height= "20" x="580" y="680" fill="#c94500"/>
<rect width="100" height= "20" x="600" y="680" fill="'#00000000"/>


<rect width="200" height= "20" x="220" y="700" fill="'#00000000"/>
<rect width="40" height= "20" x="420" y="700" fill="#47235c"/>
<rect width="20" height= "20" x="460" y="700" fill="#f88b87"/>
<rect width="20" height= "20" x="480" y="700" fill="#001120"/>
<rect width="20" height= "20" x="500" y="700" fill="#00275c"/>
<rect width="20" height= "20" x="520" y="700" fill="#47235c"/>
<rect width="20" height= "20" x="540" y="700" fill="#ffcccd"/>
<rect width="20" height= "20" x="560" y="700" fill="#f88b87"/>
<rect width="120" height= "20" x="580" y="700" fill="'#00000000"/>


<rect width="220" height= "20" x="220" y="720" fill="'#00000000"/>
<rect width="20" height= "20" x="440" y="720" fill="#ffa05c"/>
<rect width="40" height= "20" x="460" y="720" fill="#592720'"/>
<rect width="20" height= "20" x="500" y="720" fill="#a65b66"/>
<rect width="20" height= "20" x="520" y="720" fill="#ffffff"/>
<rect width="20" height= "20" x="540" y="720" fill="#f88b87"/>
</svg>